<svg xmlns="http://www.w3.org/2000/svg" width="48" height="48" viewBox="0 0 48 48">
<g>
<path fill="#d4aa70" d="M 23.00 45.06 C23.00,42.12 22.99,42.11 17.04,42.20 C11.23,42.28 6.00,40.30 6.00,38.01 C6.00,35.21 16.16,34.15 21.25,36.43 C22.67,37.07 23.00,36.72 23.00,34.61 C23.00,32.29 22.61,32.00 19.46,32.00 C15.40,32.00 8.19,28.65 7.31,26.35 C5.91,22.71 13.41,21.87 19.26,25.00 L 23.00 27.00 L 23.00 24.63 C23.00,22.83 22.32,22.11 20.25,21.70 C16.12,20.87 10.54,16.72 10.18,14.22 C9.91,12.31 10.32,12.00 13.18,12.00 C15.01,12.01 17.96,12.90 19.75,13.99 C23.50,16.28 23.81,15.85 21.00,12.27 C18.32,8.87 18.48,5.69 21.50,2.31 L 24.00 -0.50 L 26.50,2.31 C29.52,5.69 29.68,8.87 27.00,12.27 C24.19,15.85 24.50,16.28 28.25,13.99 C30.04,12.90 32.99,12.01 34.82,12.00 C37.68,12.00 38.09,12.31 37.82,14.22 C37.46,16.72 31.88,20.87 27.75,21.70 C25.68,22.11 25.00,22.83 25.00,24.63 L 25.00 27.00 L 28.74 25.00 C34.59,21.87 42.09,22.71 40.69,26.35 C39.81,28.65 32.60,32.00 28.54,32.00 C25.39,32.00 25.00,32.29 25.00,34.61 C25.00,36.72 25.33,37.07 26.75,36.43 C31.84,34.15 42.00,35.21 42.00,38.01 C42.00,40.30 36.77,42.28 30.96,42.20 C25.01,42.11 25.00,42.12 25.00,45.06 C25.00,46.68 24.55,48.00 24.00,48.00 C23.45,48.00 23.00,46.68 23.00,45.06 ZM 20.48 38.36 C18.35,36.80 10.42,36.52 9.52,37.97 C9.19,38.50 10.17,39.22 11.71,39.56 C13.24,39.90 14.91,40.27 15.41,40.39 C15.91,40.51 17.67,40.41 19.33,40.16 C22.14,39.75 22.22,39.63 20.48,38.36 ZM 36.76 39.51 C38.01,39.15 38.77,38.44 38.46,37.93 C37.63,36.59 30.26,36.78 27.68,38.21 C25.54,39.39 25.56,39.43 28.50,40.08 C31.55,40.75 32.72,40.67 36.76,39.51 ZM 21.44 28.90 C20.55,27.46 14.62,25.00 12.03,25.00 C8.94,25.00 9.61,26.93 13.25,28.51 C17.21,30.23 22.41,30.48 21.44,28.90 ZM 34.53 28.55 C38.36,26.95 39.14,25.00 35.97,25.00 C33.38,25.00 27.45,27.46 26.56,28.90 C25.57,30.50 30.37,30.29 34.53,28.55 ZM 22.00 18.99 C22.00,17.58 15.93,14.01 13.54,14.00 C11.81,14.00 11.75,14.18 13.04,15.44 C14.60,16.99 20.01,19.98 21.25,19.99 C21.66,20.00 22.00,19.54 22.00,18.99 ZM 33.49 16.63 C35.93,14.91 36.15,14.46 34.72,14.18 C32.62,13.78 26.85,16.95 26.21,18.86 C25.61,20.65 31.15,18.27 33.49,16.63 ZM 26.50 8.50 C26.50,7.67 24.50,7.00 24.00,7.00 C23.50,7.00 21.50,7.67 21.50,8.50 C21.50,9.33 22.75,9.00 24.00,9.00 C25.25,9.00 26.50,9.33 26.50,8.50 Z"/>
</g>
</svg>
